<svg width="42" height="42" viewBox="0 0 42 42" fill="none" xmlns="http://www.w3.org/2000/svg">
<g clip-path="url(#clip0_426_260)">
<path d="M27.0249 31.6235C28.3584 30.1051 29.6241 28.9108 30.8222 28.0395C30.7242 26.6785 30.619 25.2315 30.5073 23.6958C30.3929 22.1243 30.2868 20.6444 30.187 19.2578C29.5024 19.8436 28.0115 21.0745 26.3467 22.1692C26.3503 22.2195 26.354 22.2698 26.3577 22.3211C26.6212 25.9509 26.8437 29.0517 27.0249 31.6226V31.6235ZM27.8275 23.0725C28.1726 22.57 28.3748 22.3183 28.4343 22.3183C28.6595 22.3183 29.1308 22.5398 29.8465 22.9828C29.9051 23.0176 29.9344 23.0588 29.9344 23.0954C29.9344 23.1119 29.9289 23.1357 29.9161 23.1521C29.5912 23.5878 29.2498 24.082 28.8919 24.6302C29.3093 24.816 29.6644 24.9981 29.9564 25.1775C30.0158 25.2105 30.0497 25.2508 30.0497 25.2874C30.0497 25.3038 30.0415 25.3276 30.0259 25.3459C29.6479 25.8429 29.2928 26.3554 28.9615 26.8863C28.9514 26.8973 28.9368 26.9046 28.9167 26.9046C28.8965 26.9046 28.8718 26.8991 28.8416 26.8863L27.5392 26.2502C27.4596 26.2099 27.4193 26.1669 27.4193 26.1211C27.4193 26.0616 27.5621 25.8209 27.8467 25.3972C28.1323 24.9744 28.341 24.6961 28.4737 24.5634L27.4294 24.0582C27.3498 24.0179 27.3095 23.9749 27.3095 23.9292C27.3095 23.8633 27.4825 23.5777 27.8266 23.0752L27.8275 23.0725Z" fill="url(#paint0_linear_426_260)"/>
<path d="M4.16594 23.6129C4.17326 23.6129 4.17784 23.6111 4.18241 23.6074C4.1879 23.6019 4.19156 23.59 4.19156 23.5727C4.19156 23.5617 4.18882 23.547 4.18699 23.5296C4.17692 23.4775 4.14397 23.4198 4.08723 23.3548C4.03048 23.2908 3.9774 23.2578 3.92889 23.2578C3.84744 23.2578 3.78429 23.2963 3.73486 23.3695C3.81815 23.4436 3.94445 23.5205 4.11285 23.5983C4.13573 23.6074 4.15312 23.6138 4.16502 23.6138L4.16594 23.6129Z" fill="url(#paint1_linear_426_260)"/>
<path d="M28.4454 32.9956C28.0866 33.3654 27.6766 33.8166 27.2153 34.3483C27.4908 38.3314 27.629 40.5261 27.629 40.9279C27.629 41.2922 27.619 41.6482 27.5997 41.9987H31.7851C31.6606 39.9276 31.4053 36.176 31.0172 30.7441C30.1926 31.3363 29.335 32.0859 28.4463 32.9956H28.4454Z" fill="url(#paint2_linear_426_260)"/>
<path d="M25.2221 4.46084C25.1324 4.35284 25.083 4.41599 25.083 4.6448C25.083 4.68873 25.1836 6.1046 25.385 8.8924L29.3553 7.40789C29.2134 5.28089 29.1429 4.06272 29.1429 3.7552C29.1429 2.83905 28.9992 2.10229 28.7119 1.53667C28.7119 1.30238 28.8684 0.78893 29.1805 0H24.5869C24.7663 0.449379 25.0033 1.06441 25.299 1.84694C25.8692 3.35158 26.2014 4.28146 26.2957 4.63107C26.3716 4.89649 26.4082 5.09327 26.4082 5.21957C26.4082 5.64607 26.0128 5.39438 25.223 4.46084H25.2221Z" fill="url(#paint3_linear_426_260)"/>
<path d="M29.9895 16.508C29.7433 13.0594 29.5502 10.3055 29.4111 8.24805C28.268 8.68095 26.9464 9.18067 25.4463 9.74537C25.6174 12.1103 25.8481 15.2972 26.1391 19.3059C27.2575 18.6185 28.5379 17.7079 29.9895 16.5089V16.508ZM26.9143 10.9169L27.2301 10.3558C27.2447 10.3311 27.2639 10.3201 27.2868 10.3201C27.3097 10.3201 27.3362 10.332 27.3683 10.3558C28.4611 11.1695 29.0075 12.2778 29.0075 13.6809C29.0075 14.1183 28.9297 14.5311 28.7741 14.9201C28.7036 15.0894 28.6404 15.1736 28.5837 15.1736C28.5434 15.1736 28.5215 15.137 28.5215 15.061C28.5215 15.008 28.5297 14.9356 28.5517 14.846C28.5874 14.6556 28.6048 14.4085 28.6048 14.1046C28.6048 13.1162 28.0529 12.1332 26.9464 11.1502C26.9061 11.1136 26.8841 11.0725 26.8841 11.0249C26.8841 10.991 26.8924 10.9553 26.9143 10.9169Z" fill="url(#paint4_linear_426_260)"/>
<path d="M38.5149 1.08398C38.6064 1.32378 38.7062 1.58553 38.8133 1.86834C39.3716 3.36291 39.7093 4.27814 39.8209 4.61495C39.8768 4.89593 39.9051 5.09179 39.9051 5.20527C39.9051 5.33158 39.863 5.3993 39.788 5.3993C39.6223 5.3993 39.2645 5.08995 38.7291 4.47492C38.6989 4.42824 38.6659 4.40719 38.6467 4.40719C38.6092 4.40719 38.589 4.4859 38.589 4.64332C38.589 4.70007 38.7666 7.16021 39.1199 12.0283C39.4759 16.8964 39.6535 19.7968 39.6535 20.7322C39.6535 23.4477 39.1666 25.5811 38.1955 27.1352C37.3745 28.4448 36.4035 29.1002 35.2832 29.1002V29.0947C34.4073 29.0947 33.482 29.3409 32.5073 29.8305C32.9951 36.6938 33.2386 40.3932 33.2386 40.9286C33.2386 41.2929 33.2285 41.6489 33.2093 41.9994H34.6792C38.7227 41.9994 42.001 38.7211 42.001 34.6776V7.32038C42.001 4.68359 40.6071 2.37355 38.5158 1.08398H38.5149Z" fill="url(#paint5_linear_426_260)"/>
<path d="M30.9074 1.8459C31.4776 3.35054 31.8098 4.28042 31.904 4.63004C31.98 4.89545 32.0166 5.09223 32.0166 5.21853C32.0166 5.64503 31.6212 5.39334 30.8314 4.4598C30.7417 4.35181 30.6923 4.41496 30.6923 4.64376C30.6923 4.67488 30.7445 5.41073 30.847 6.84947L35.0296 5.28534C35.1412 5.24416 35.2181 5.22219 35.2547 5.22219C35.2648 5.22219 35.2721 5.22585 35.2767 5.22585C35.2803 5.22951 35.2831 5.24141 35.2831 5.25148C35.2831 5.28443 35.2639 5.35124 35.23 5.43819C35.0735 5.82533 34.9591 6.04865 34.8914 6.10905C34.8246 6.16854 33.4966 6.69114 30.9074 7.67776C31.0373 9.47619 31.2249 12.0736 31.4711 15.471C33.0069 14.4367 34.0613 13.8501 34.6305 13.7165C35.8185 13.4501 36.5095 13.7531 36.7072 14.6198C36.8628 15.3026 36.8124 16.01 36.5534 16.7514C36.3274 17.2731 36.0949 17.7911 35.8551 18.3155C35.7316 18.5828 35.3069 19.4266 34.5802 20.8452C34.0265 21.9298 33.6686 22.7672 33.5011 23.363C33.2202 24.3945 33.0307 24.9171 32.9346 24.939C32.9062 24.9363 32.8861 24.9088 32.8733 24.8521C32.8339 24.6809 32.8385 24.2334 32.8843 23.5085C33.0078 21.7668 33.8626 19.5584 35.4542 16.8832C35.2144 16.7212 34.8758 16.6882 34.4365 16.7834C33.8086 16.9298 32.8714 17.3682 31.6661 18.159C31.7604 19.4531 31.861 20.8406 31.9681 22.3206C32.0926 24.0339 32.2079 25.6282 32.3132 27.1054C33.3593 26.5599 34.3496 26.2863 35.2831 26.2863V26.2917C36.1791 26.2917 37.0467 25.9476 37.8869 25.253C38.1304 25.0489 38.2512 24.2984 38.2512 23.007C38.2512 22.2217 38.0498 19.0632 37.6499 13.5334C37.2472 8.00358 37.0458 4.74536 37.0458 3.75141C37.0458 2.85357 36.9058 2.11589 36.6248 1.53381C36.6248 1.33154 36.7328 0.93799 36.9479 0.358648C36.2331 0.125264 35.4707 -0.00195312 34.6781 -0.00195312H30.1953C30.3747 0.447426 30.6117 1.06246 30.9074 1.84499V1.8459Z" fill="url(#paint6_linear_426_260)"/>
<path d="M25.7819 36.0603C25.6455 36.2268 25.5073 36.398 25.3655 36.5755C24.2516 37.9603 23.4261 38.8865 22.8861 39.3542C22.0441 40.1029 21.214 40.4772 20.393 40.4772C19.4668 40.4772 18.6596 40.0608 17.9695 39.2279C17.2391 38.3575 16.8776 37.2958 16.8776 36.042C16.8776 34.3131 17.5869 32.0561 19.0064 29.2775C19.1565 28.9901 19.2728 28.8428 19.3551 28.8428C19.3927 28.8546 19.411 28.8922 19.411 28.9553C19.411 29.2363 19.1053 30.2092 18.4875 31.8676C17.8716 33.5306 17.5631 34.843 17.5631 35.804C17.5631 36.5435 17.7361 37.1329 18.0821 37.5722C18.4445 38.0491 18.9543 38.2879 19.6068 38.2879C20.5962 38.2879 21.8244 37.521 23.2906 35.9861C24.0585 35.091 24.8246 34.1959 25.5897 33.3027C25.3993 30.6119 25.1696 27.4104 24.8987 23.6964C24.8841 23.4886 24.8685 23.2827 24.8539 23.0786C23.1689 24.0112 21.4968 24.5888 20.4424 24.0634C20.6465 25.1004 20.6841 25.9232 20.5559 26.53C20.4855 26.8494 20.3857 27.0214 20.2576 27.0461C20.1221 27.0727 19.8585 27.0196 19.4695 26.886C17.8578 26.3423 16.7431 25.3127 16.1198 23.7925C15.8288 23.0869 15.3354 22.8004 14.638 22.9377C12.09 23.4392 10.0701 24.7782 8.57554 26.9482C7.90925 27.9211 6.94826 29.4706 5.69439 31.6058C4.68763 33.3109 3.8987 34.5007 3.32577 35.1762C2.48284 36.1619 1.59872 36.7467 0.673425 36.9279C0.571834 36.948 0.470243 36.9618 0.368652 36.9709C1.33148 39.8914 4.07992 42.0001 7.32259 42.0001H26.1764C26.0977 40.6913 25.9668 38.7126 25.7828 36.0612L25.7819 36.0603ZM23.9999 32.2492C23.8938 32.4991 23.7565 32.6245 23.5908 32.6245C23.3272 32.6245 23.1396 32.4433 23.0289 32.0808C22.9035 32.5449 22.6738 32.7764 22.3415 32.7764C22.2162 32.7764 22.1072 32.7142 22.0148 32.5888C21.9096 32.4405 21.8565 32.2456 21.8565 32.0049V31.4338C21.8565 31.3871 21.8254 31.3551 21.7622 31.3368C21.7 31.3185 21.6688 31.269 21.6688 31.1912C21.6688 31.0658 21.7219 30.9432 21.829 30.8224C21.9251 30.7162 21.9992 30.6622 22.0505 30.6622C22.1155 30.6622 22.1475 30.7876 22.1475 31.0375C22.1475 31.1674 22.1374 31.2773 22.1164 31.3651C22.0953 31.453 22.0853 31.5299 22.0853 31.5949C22.0853 31.7294 22.1127 31.8584 22.1686 31.9838C22.2335 32.1275 22.315 32.1998 22.412 32.1998C22.5356 32.1998 22.6527 32.1431 22.7616 32.0296C22.8705 31.9161 22.9255 31.7825 22.9255 31.6296C22.9255 31.5418 22.8998 31.3908 22.8486 31.1784C22.7973 30.9643 22.7726 30.8325 22.7726 30.7812C22.7726 30.7345 22.7955 30.6613 22.8422 30.5625C22.8889 30.4627 22.9227 30.4133 22.9465 30.4133C22.9886 30.4133 23.0426 30.5542 23.1103 30.837C23.1762 31.1208 23.2101 31.3294 23.2101 31.464C23.2101 31.853 23.3611 32.0479 23.6622 32.0479C23.7904 32.0479 23.8718 31.9829 23.9038 31.853C23.6458 31.3999 23.5158 31.0521 23.5158 30.8105C23.5158 30.6714 23.5506 30.5506 23.6201 30.4426C23.6668 30.3694 23.6988 30.33 23.7171 30.3245C23.7345 30.3245 23.7483 30.3721 23.7574 30.4636C23.7711 30.5945 23.7922 30.6998 23.8196 30.783C23.8242 30.7931 23.8865 30.9533 24.0073 31.2626C24.0814 31.4493 24.1189 31.5894 24.1189 31.6864C24.1189 31.8667 24.0796 32.0543 24.0009 32.2492H23.9999ZM19.6837 30.2211C21.6368 29.4916 22.7323 29.1018 24.8182 28.3238C24.8658 28.3055 24.8978 28.2973 24.917 28.2973C24.9225 28.2973 24.9271 28.2991 24.9298 28.3C24.9353 28.3037 24.9399 28.3137 24.9399 28.3247C24.9399 28.3412 24.9307 28.3687 24.9179 28.4007C24.8475 28.5755 24.7907 28.6789 24.7477 28.7146C24.7239 28.7384 24.6772 28.7476 22.7598 29.4642C20.804 30.1936 19.7112 30.6256 19.4833 30.7602C19.5226 30.5982 19.5885 30.4188 19.6837 30.222V30.2211Z" fill="url(#paint7_linear_426_260)"/>
<path d="M3.39734 31.4704C4.54504 29.6234 5.70098 27.7774 6.85966 25.9259C8.14007 24.1577 9.32713 22.859 10.419 22.0215C11.5511 21.1621 12.8654 20.5819 14.3591 20.2881C14.8277 20.1956 15.2789 20.1764 15.7182 20.2286C15.6486 19.8744 15.7246 19.6767 15.9443 19.6328C16.0632 19.609 16.206 19.6556 16.3689 19.7664C17.3025 20.3787 18.5005 20.8894 19.9594 21.3003C20.4957 21.4111 21.9775 21.4989 24.6417 20.1471C24.3525 16.1348 24.1191 12.8555 23.9434 10.3093C23.0629 10.6406 22.1294 10.9902 21.1437 11.3609C19.5677 11.9494 16.9098 12.9937 13.1665 14.4919C9.27222 16.0387 7.12966 16.9136 6.73885 17.1177C6.16592 17.4161 5.88128 17.6202 5.88128 17.73C5.88128 17.8005 5.97555 17.8828 6.16134 17.9771C6.34988 18.0714 6.65191 18.1894 7.06559 18.3304C7.13606 18.3542 7.17176 18.507 7.17176 18.7898C7.17176 19.0333 7.15986 19.177 7.13698 19.22C7.12508 19.2429 7.08756 19.2575 7.03539 19.2575C6.99786 19.2575 6.94112 19.2511 6.8798 19.2383C5.93162 19.0571 5.45753 18.7239 5.45753 18.238C5.45753 17.9634 5.58932 17.6101 5.85199 17.1781C6.11283 16.747 6.39015 16.4404 6.68028 16.2601C6.86882 16.143 8.53179 15.4483 11.6738 14.1771C15.1919 12.7557 18.3486 11.5238 21.1446 10.4804L23.8857 9.45539C23.6523 6.05347 23.5343 4.15345 23.5343 3.75715C23.5343 2.84101 23.3906 2.10424 23.1032 1.53863C23.1032 1.30433 23.2597 0.790885 23.5718 0.00195485H7.32186C3.27836 -0.000790848 0 3.27757 0 7.32107V25.5616C0 25.5516 0.0713881 25.515 0.214164 25.45C0.61229 25.2916 1.21909 25.0189 2.03365 24.6336C2.63129 24.3105 3.01111 24.0259 3.17311 23.7833C3.2445 23.6378 3.34609 23.4566 3.4788 23.2388C3.49619 23.2205 3.51358 23.2113 3.53188 23.2113C3.54927 23.2113 3.56666 23.2196 3.58496 23.2342C3.70486 22.9816 3.83482 22.8553 3.9776 22.8553C4.07187 22.8553 4.16156 22.9139 4.24668 23.0301C4.33271 23.1473 4.37572 23.2855 4.37572 23.4438C4.37572 23.4996 4.36932 23.5555 4.3565 23.614C4.30159 23.8639 4.22013 23.9884 4.11397 23.9884C4.0197 23.9884 3.89706 23.9362 3.74513 23.8328C3.60876 23.7449 3.50808 23.6598 3.44402 23.5747C3.35707 23.8465 3.24084 24.0662 3.0944 24.2309C2.85186 24.51 2.52146 24.7608 2.10503 24.9841C1.7783 25.1626 1.57328 25.2514 1.48908 25.2514C1.47627 25.2514 1.28773 25.2953 0.926215 25.3823C0.544563 25.4765 0.305687 25.5314 0.208673 25.5479C0.121726 25.5616 0.0585748 25.5699 0.027457 25.5699C0.0100676 25.5699 0 25.568 0 25.5626V34.6792C0 34.7112 0.00183046 34.7433 0.0027457 34.7762C1.08363 34.3479 2.21486 33.2478 3.39734 31.4722V31.4704ZM18.8437 15.1436C18.9883 14.9038 19.0771 14.7811 19.1146 14.7811C19.4468 14.7811 19.7791 15.1005 20.1095 15.7403C20.4106 16.3215 20.6202 16.9731 20.7373 17.6925C20.7501 17.7611 20.7565 17.8023 20.7565 17.8151C20.763 17.8224 20.7694 17.8288 20.7739 17.8288C20.7785 17.8288 20.7813 17.8243 20.7849 17.8151C20.7913 17.8023 20.8069 17.762 20.8316 17.6925C20.9195 17.0738 21.0888 16.2556 21.3396 15.2424C21.5766 14.6722 21.8365 14.3867 22.1184 14.3867C22.2612 14.3867 22.4049 14.4837 22.5495 14.6777C22.6749 14.847 22.7371 14.9834 22.7371 15.0905C22.7371 15.1719 22.7151 15.2781 22.6712 15.4099C22.6154 15.5838 22.5495 15.6716 22.4735 15.6716C22.4424 15.6716 22.3728 15.6057 22.2667 15.4712C22.1614 15.3385 22.0516 15.2708 21.939 15.2708C21.7075 15.2708 21.4439 16.0835 21.151 17.7053C21.0567 18.2187 20.9533 18.583 20.8407 18.7962C20.7593 18.9399 20.6906 19.0122 20.6339 19.0122C20.5854 19.0122 20.5607 18.9463 20.5607 18.8146C20.5607 18.6013 20.4261 18.0933 20.1562 17.2916C19.8798 16.4642 19.6967 16.0506 19.6034 16.0506C19.5347 16.0506 19.4908 16.0743 19.4716 16.1164C19.4523 16.1622 19.3965 16.1823 19.3022 16.1823C19.1952 16.1823 19.056 16.1055 18.8858 15.9471C18.7137 15.7925 18.6268 15.6652 18.6268 15.571C18.6268 15.5289 18.6991 15.3861 18.8428 15.1436H18.8437Z" fill="url(#paint8_linear_426_260)"/>
</g>
<defs>
<linearGradient id="paint0_linear_426_260" x1="4.13308" y1="1.04378" x2="41.2732" y2="38.0686" gradientUnits="userSpaceOnUse">
<stop stop-color="#3A6EB3"/>
<stop offset="1" stop-color="#203F7D"/>
</linearGradient>
<linearGradient id="paint1_linear_426_260" x1="-7.13626" y1="12.3474" x2="30.0037" y2="49.3722" gradientUnits="userSpaceOnUse">
<stop stop-color="#3A6EB3"/>
<stop offset="1" stop-color="#203F7D"/>
</linearGradient>
<linearGradient id="paint2_linear_426_260" x1="-0.982982" y1="6.17473" x2="36.1571" y2="43.1996" gradientUnits="userSpaceOnUse">
<stop stop-color="#3A6EB3"/>
<stop offset="1" stop-color="#203F7D"/>
</linearGradient>
<linearGradient id="paint3_linear_426_260" x1="13.9702" y1="-8.82375" x2="51.1103" y2="28.2001" gradientUnits="userSpaceOnUse">
<stop stop-color="#3A6EB3"/>
<stop offset="1" stop-color="#203F7D"/>
</linearGradient>
<linearGradient id="paint4_linear_426_260" x1="9.55145" y1="-4.39039" x2="46.6916" y2="32.6335" gradientUnits="userSpaceOnUse">
<stop stop-color="#3A6EB3"/>
<stop offset="1" stop-color="#203F7D"/>
</linearGradient>
<linearGradient id="paint5_linear_426_260" x1="9.76747" y1="-4.60967" x2="46.9076" y2="32.4151" gradientUnits="userSpaceOnUse">
<stop stop-color="#3A6EB3"/>
<stop offset="1" stop-color="#203F7D"/>
</linearGradient>
<linearGradient id="paint6_linear_426_260" x1="12.989" y1="-7.84092" x2="50.1291" y2="29.1839" gradientUnits="userSpaceOnUse">
<stop stop-color="#3A6EB3"/>
<stop offset="1" stop-color="#203F7D"/>
</linearGradient>
<linearGradient id="paint7_linear_426_260" x1="-6.40956" y1="11.619" x2="30.7306" y2="48.6438" gradientUnits="userSpaceOnUse">
<stop stop-color="#3A6EB3"/>
<stop offset="1" stop-color="#203F7D"/>
</linearGradient>
<linearGradient id="paint8_linear_426_260" x1="-0.224232" y1="5.41372" x2="36.9159" y2="42.4385" gradientUnits="userSpaceOnUse">
<stop stop-color="#3A6EB3"/>
<stop offset="1" stop-color="#203F7D"/>
</linearGradient>
<clipPath id="clip0_426_260">
<rect width="42" height="42" fill="white"/>
</clipPath>
</defs>
</svg>
